<svg version="1.1" xmlns="http://www.w3.org/2000/svg" xmlns:xlink="http://www.w3.org/1999/xlink" width="512px" height="512px" viewBox="0,0,256,256"><g fill="#d09c4d" fill-rule="nonzero" stroke="none" stroke-width="1" stroke-linecap="butt" stroke-linejoin="miter" stroke-miterlimit="10" stroke-dasharray="" stroke-dashoffset="0" font-family="none" font-weight="none" font-size="none" text-anchor="none" style="mix-blend-mode: normal"><g transform="translate(0.00625,0) scale(0.5,0.5)"><path d="M502.6,278.6c12.5,-12.5 12.5,-32.8 0,-45.3l-128,-128c-12.5,-12.5 -32.8,-12.5 -45.3,0c-12.5,12.5 -12.5,32.8 0,45.3l73.4,73.4h-210.7c-17.7,0 -32,14.3 -32,32c0,17.7 14.3,32 32,32h210.7l-73.4,73.4c-12.5,12.5 -12.5,32.8 0,45.3c12.5,12.5 32.8,12.5 45.3,0l128,-128zM160,96c17.7,0 32,-14.3 32,-32c0,-17.7 -14.3,-32 -32,-32h-64c-53,0 -96,43 -96,96v256c0,53 43,96 96,96h64c17.7,0 32,-14.3 32,-32c0,-17.7 -14.3,-32 -32,-32h-64c-17.7,0 -32,-14.3 -32,-32v-256c0,-17.7 14.3,-32 32,-32z"></path></g></g></svg>